<?xml version="1.0" encoding="utf-8"?>
<svg version="1.1" xmlns:xlink="http://www.w3.org/1999/xlink" width="26px" height="27px" xmlns="http://www.w3.org/2000/svg">
  <g transform="matrix(1 0 0 1 -20 -275 )">
    <path d="M 21.1065340909091 12.4453125  C 21.2173295454545 12.5603693181818  21.2727272727273 12.7073863636364  21.2727272727273 12.8863636363636  L 21.2727272727273 14.1136363636364  C 21.2727272727273 14.2926136363636  21.2173295454545 14.4396306818182  21.1065340909091 14.5546875  C 20.9957386363636 14.6697443181818  20.8541666666667 14.7272727272727  20.6818181818182 14.7272727272727  L 5.31818181818182 14.7272727272727  C 5.14583333333333 14.7272727272727  5.00426136363636 14.6697443181818  4.89346590909091 14.5546875  C 4.78267045454546 14.4396306818182  4.72727272727273 14.2926136363636  4.72727272727273 14.1136363636364  L 4.72727272727273 12.8863636363636  C 4.72727272727273 12.7073863636364  4.78267045454546 12.5603693181818  4.89346590909091 12.4453125  C 5.00426136363636 12.3302556818182  5.14583333333333 12.2727272727273  5.31818181818182 12.2727272727273  L 20.6818181818182 12.2727272727273  C 20.8541666666667 12.2727272727273  20.9957386363636 12.3302556818182  21.1065340909091 12.4453125  Z M 22.7684659090909 23.6441761363636  C 23.3470643939394 23.0433238636364  23.6363636363636 22.3210227272727  23.6363636363636 21.4772727272727  L 23.6363636363636 5.52272727272727  C 23.6363636363636 4.67897727272727  23.3470643939394 3.95667613636363  22.7684659090909 3.35582386363636  C 22.1898674242424 2.75497159090909  21.4943181818182 2.45454545454546  20.6818181818182 2.45454545454546  L 5.31818181818182 2.45454545454546  C 4.50568181818182 2.45454545454546  3.81013257575758 2.75497159090909  3.23153409090909 3.35582386363636  C 2.65293560606061 3.95667613636363  2.36363636363636 4.67897727272727  2.36363636363636 5.52272727272727  L 2.36363636363636 21.4772727272727  C 2.36363636363636 22.3210227272727  2.65293560606061 23.0433238636364  3.23153409090909 23.6441761363636  C 3.81013257575758 24.2450284090909  4.50568181818182 24.5454545454545  5.31818181818182 24.5454545454545  L 20.6818181818182 24.5454545454545  C 21.4943181818182 24.5454545454545  22.1898674242424 24.2450284090909  22.7684659090909 23.6441761363636  Z M 24.4396306818182 1.62038352272727  C 25.4798768939394 2.70063920454545  26 4.00142045454545  26 5.52272727272727  L 26 21.4772727272727  C 26 22.9985795454545  25.4798768939394 24.2993607954545  24.4396306818182 25.3796164772727  C 23.399384469697 26.4598721590909  22.1467803030303 27  20.6818181818182 27  L 5.31818181818182 27  C 3.8532196969697 27  2.60061553030303 26.4598721590909  1.56036931818182 25.3796164772727  C 0.520123106060606 24.2993607954545  0 22.9985795454545  0 21.4772727272727  L 0 5.52272727272727  C 0 4.00142045454545  0.520123106060606 2.70063920454545  1.56036931818182 1.62038352272727  C 2.60061553030303 0.540127840909088  3.8532196969697 0  5.31818181818182 0  L 20.6818181818182 0  C 22.1467803030303 0  23.399384469697 0.540127840909088  24.4396306818182 1.62038352272727  Z " fill-rule="nonzero" fill="#000000" stroke="none" transform="matrix(1 0 0 1 20 275 )" />
  </g>
</svg>